<svg xmlns="http://www.w3.org/2000/svg" viewBox="0 0 100 100" width="100" height="100">
  <defs>
    <style>
      .sketch-line {
        fill: none;
        stroke: #ffffff;
        stroke-width: 1.5;
        stroke-linecap: round;
        stroke-linejoin: round;
        opacity: 0.9;
      }
      .sketch-fill {
        fill: none;
        stroke: #ffffff;
        stroke-width: 1;
        opacity: 0.7;
      }
    </style>
  </defs>

  <!-- Face outline -->
  <ellipse cx="50" cy="45" rx="22" ry="28" class="sketch-line"/>

  <!-- Hair outline -->
  <path d="M28 25 Q35 15 50 18 Q65 15 72 25 Q75 30 72 35" class="sketch-line"/>

  <!-- Eyes -->
  <ellipse cx="43" cy="38" rx="2.5" ry="1.5" class="sketch-line"/>
  <ellipse cx="57" cy="38" rx="2.5" ry="1.5" class="sketch-line"/>

  <!-- Eye details -->
  <circle cx="43" cy="38" r="0.8" class="sketch-fill"/>
  <circle cx="57" cy="38" r="0.8" class="sketch-fill"/>

  <!-- Eyebrows -->
  <path d="M39 33 Q43 31 47 33" class="sketch-line"/>
  <path d="M53 33 Q57 31 61 33" class="sketch-line"/>

  <!-- Nose -->
  <path d="M50 42 L48 48 L50 50 L52 48" class="sketch-line"/>

  <!-- Mouth -->
  <path d="M45 55 Q50 58 55 55" class="sketch-line"/>

  <!-- Neck -->
  <path d="M45 73 L45 85" class="sketch-line"/>
  <path d="M55 73 L55 85" class="sketch-line"/>

  <!-- Shoulders -->
  <path d="M35 85 Q40 82 45 85" class="sketch-line"/>
  <path d="M55 85 Q60 82 65 85" class="sketch-line"/>

  <!-- Additional sketch details for artistic effect -->
  <path d="M30 40 Q35 38 32 42" class="sketch-fill" opacity="0.3"/>
  <path d="M68 40 Q65 38 68 42" class="sketch-fill" opacity="0.3"/>
</svg>
